<svg width="10" height="14" viewBox="0 0 10 14" fill="none" xmlns="http://www.w3.org/2000/svg">
<g clip-path="url(#clip0_15_368)">
<path d="M4.99936 -0.000593023C4.34035 -0.00960587 3.68627 0.118502 3.07572 0.376173C2.46517 0.633843 1.91052 1.01586 1.44448 1.49967C0.978449 1.98349 0.610477 2.55931 0.362277 3.19316C0.114078 3.827 -0.00932146 4.50604 -0.000639881 5.1902C-0.000639881 9.08329 4.52019 13.5387 4.70769 13.7334L4.99936 13.9994L5.29103 13.7334C5.47853 13.5387 9.99936 9.08329 9.99936 5.1902C10.008 4.50604 9.88464 3.827 9.63644 3.19316C9.38824 2.55931 9.02027 1.98349 8.55424 1.49967C8.08821 1.01586 7.53355 0.633843 6.923 0.376173C6.31245 0.118502 5.65837 -0.00960587 4.99936 -0.000593023ZM4.99936 6.92046C4.66972 6.92046 4.34749 6.81898 4.07341 6.62886C3.79933 6.43874 3.58571 6.16851 3.45956 5.85234C3.33341 5.53618 3.30041 5.18828 3.36472 4.85264C3.42903 4.517 3.58776 4.2087 3.82085 3.96672C4.05394 3.72474 4.35091 3.55994 4.67421 3.49318C4.99751 3.42642 5.33262 3.46068 5.63717 3.59164C5.94171 3.7226 6.20201 3.94438 6.38514 4.22892C6.56828 4.51346 6.66603 4.84799 6.66603 5.1902C6.66603 5.64909 6.49043 6.08919 6.17787 6.41368C5.86531 6.73817 5.44139 6.92046 4.99936 6.92046Z" fill="#9C9C9C"/>
</g>
<defs>
<clipPath id="clip0_15_368">
<rect width="10" height="14" fill="white"/>
</clipPath>
</defs>
</svg>
